<svg width="91" height="90" viewBox="0 0 91 90" fill="none" xmlns="http://www.w3.org/2000/svg">
<g id="material-symbols:shield-lock-outline" clip-path="url(#clip0_265_177)">
<path id="Vector" d="M24.5 75C17.55 73.25 11.812 69.262 7.286 63.036C2.76 56.81 0.498001 49.898 0.500001 42.3V24L24.5 15L48.5 24V42.3C48.5 49.9 46.237 56.813 41.711 63.039C37.185 69.265 31.448 73.252 24.5 75ZM24.5 68.7C29.7 67.05 34 63.75 37.4 58.8C40.8 53.85 42.5 48.35 42.5 42.3V28.125L24.5 21.375L6.5 28.125V42.3C6.5 48.35 8.2 53.85 11.6 58.8C15 63.75 19.3 67.05 24.5 68.7ZM18.5 57H30.5C31.35 57 32.063 56.712 32.639 56.136C33.215 55.56 33.502 54.848 33.5 54V45C33.5 44.15 33.212 43.437 32.636 42.861C32.06 42.285 31.348 41.998 30.5 42V39C30.5 37.35 29.912 35.937 28.736 34.761C27.56 33.585 26.148 32.998 24.5 33C22.85 33 21.437 33.588 20.261 34.764C19.085 35.94 18.498 37.352 18.5 39V42C17.65 42 16.937 42.288 16.361 42.864C15.785 43.44 15.498 44.152 15.5 45V54C15.5 54.85 15.788 55.563 16.364 56.139C16.94 56.715 17.652 57.002 18.5 57ZM21.5 42V39C21.5 38.15 21.788 37.437 22.364 36.861C22.94 36.285 23.652 35.998 24.5 36C25.35 36 26.063 36.288 26.639 36.864C27.215 37.44 27.502 38.152 27.5 39V42H21.5Z" fill="#FFC231"/>
</g>
<defs>
<clipPath id="clip0_265_177">
<rect width="90" height="90" fill="white" transform="translate(0.5)"/>
</clipPath>
</defs>
</svg>
