<svg width="91" height="90" viewBox="0 0 91 90" fill="none" xmlns="http://www.w3.org/2000/svg">
<g id="mdi:bullseye-arrow">
<path id="Vector" d="M26 20C22.717 20 19.4661 20.6466 16.4329 21.903C13.3998 23.1594 10.6438 25.0009 8.32233 27.3223C3.63392 32.0107 1 38.3696 1 45C1 51.6304 3.63392 57.9893 8.32233 62.6777C10.6438 64.9991 13.3998 66.8406 16.4329 68.097C19.4661 69.3534 22.717 70 26 70C32.6304 70 38.9893 67.3661 43.6777 62.6777C48.3661 57.9893 51 51.6304 51 45C51 42.1 50.475 39.225 49.475 36.525L45.475 40.525C45.825 42 46 43.5 46 45C46 50.3043 43.8929 55.3914 40.1421 59.1421C36.3914 62.8929 31.3043 65 26 65C20.6957 65 15.6086 62.8929 11.8579 59.1421C8.10714 55.3914 6 50.3043 6 45C6 39.6957 8.10714 34.6086 11.8579 30.8579C15.6086 27.1071 20.6957 25 26 25C27.5 25 29 25.175 30.475 25.525L34.5 21.5C31.775 20.525 28.9 20 26 20ZM43.5 20L33.5 30V33.75L27.125 40.125C26.75 40 26.375 40 26 40C24.6739 40 23.4021 40.5268 22.4645 41.4645C21.5268 42.4021 21 43.6739 21 45C21 46.3261 21.5268 47.5979 22.4645 48.5355C23.4021 49.4732 24.6739 50 26 50C27.3261 50 28.5979 49.4732 29.5355 48.5355C30.4732 47.5979 31 46.3261 31 45C31 44.625 31 44.25 30.875 43.875L37.25 37.5H41L51 27.5H43.5V20ZM26 30C22.0218 30 18.2064 31.5804 15.3934 34.3934C12.5804 37.2064 11 41.0218 11 45C11 48.9782 12.5804 52.7936 15.3934 55.6066C18.2064 58.4197 22.0218 60 26 60C29.9782 60 33.7936 58.4197 36.6066 55.6066C39.4197 52.7936 41 48.9782 41 45H36C36 47.6522 34.9464 50.1957 33.0711 52.0711C31.1957 53.9464 28.6522 55 26 55C23.3478 55 20.8043 53.9464 18.9289 52.0711C17.0536 50.1957 16 47.6522 16 45C16 42.3478 17.0536 39.8043 18.9289 37.9289C20.8043 36.0536 23.3478 35 26 35V30Z" fill="#FFC231"/>
</g>
</svg>
