<svg width="81" height="80" viewBox="0 0 81 80" fill="none" xmlns="http://www.w3.org/2000/svg">
<g id="ic:baseline-cloud-upload" clip-path="url(#clip0_265_149)">
<path id="Vector" d="M65.4785 33.4666C64.3588 27.7924 61.3039 22.6828 56.8354 19.0108C52.3669 15.3388 46.7622 13.332 40.9785 13.3333C31.3452 13.3333 22.9785 18.8 18.8118 26.8C13.9126 27.3294 9.38187 29.6507 6.09014 33.3177C2.79842 36.9848 0.977943 41.7389 0.978516 46.6666C0.978516 57.7 9.94518 66.6666 20.9785 66.6666H64.3118C73.5118 66.6666 80.9785 59.2 80.9785 50C80.9785 41.2 74.1452 34.0666 65.4785 33.4666ZM47.6452 43.3333V56.6666H34.3118V43.3333H24.3118L40.9785 26.6666L57.6452 43.3333H47.6452Z" fill="url(#paint0_linear_265_149)"/>
</g>
<defs>
<linearGradient id="paint0_linear_265_149" x1="-14.6882" y1="101.233" x2="94.6818" y2="32.6038" gradientUnits="userSpaceOnUse">
<stop stop-color="#1B0069"/>
<stop offset="1" stop-color="#AD00FF"/>
</linearGradient>
<clipPath id="clip0_265_149">
<rect width="80" height="80" fill="white" transform="translate(0.978516)"/>
</clipPath>
</defs>
</svg>
