<svg width="91" height="90" viewBox="0 0 91 90" fill="none" xmlns="http://www.w3.org/2000/svg">
<g id="material-symbols:data-alert-rounded" clip-path="url(#clip0_265_193)">
<path id="Vector" d="M3.44119 70C2.60785 70 1.90883 69.7176 1.34413 69.1529C0.779422 68.5882 0.498049 67.8902 0.50001 67.0588C0.50001 66.2255 0.782363 65.5265 1.34707 64.9618C1.91177 64.3971 2.60981 64.1157 3.44119 64.1176H32.8529C33.6863 64.1176 34.3853 64.4 34.95 64.9647C35.5147 65.5294 35.7961 66.2274 35.7941 67.0588C35.7941 67.8921 35.5118 68.5912 34.9471 69.1559C34.3824 69.7206 33.6843 70.0019 32.8529 70H3.44119ZM38.7353 49.4118C34.6667 49.4118 31.198 47.9774 28.3294 45.1088C25.4608 42.2402 24.0275 38.7725 24.0294 34.7059C24.0294 30.6373 25.4637 27.1686 28.3324 24.3C31.201 21.4314 34.6686 19.998 38.7353 20C42.8039 20 46.2726 21.4343 49.1412 24.3029C52.0098 27.1716 53.4431 30.6392 53.4412 34.7059C53.4412 38.7745 52.0069 42.2431 49.1382 45.1118C46.2696 47.9804 42.802 49.4137 38.7353 49.4118ZM3.44119 46.4706C2.60785 46.4706 1.90883 46.1882 1.34413 45.6235C0.779422 45.0588 0.498049 44.3608 0.50001 43.5294C0.50001 42.6961 0.782363 41.9971 1.34707 41.4323C1.91177 40.8676 2.60981 40.5863 3.44119 40.5882H19.0294C19.3726 41.6667 19.7647 42.6961 20.2059 43.6765C20.6471 44.6569 21.1863 45.5882 21.8235 46.4706H3.44119ZM3.44119 58.2353C2.60785 58.2353 1.90883 57.9529 1.34413 57.3882C0.779422 56.8235 0.498049 56.1255 0.50001 55.2941C0.50001 54.4608 0.782363 53.7618 1.34707 53.1971C1.91177 52.6323 2.60981 52.351 3.44119 52.3529H28.1471C29.2745 53.0392 30.4755 53.6157 31.75 54.0823C33.0245 54.549 34.3726 54.8794 35.7941 55.0735V55.2941C35.7941 56.1274 35.5118 56.8265 34.9471 57.3912C34.3824 57.9559 33.6843 58.2372 32.8529 58.2353H3.44119ZM38.7353 37.6471C39.1275 37.6471 39.4706 37.5 39.7647 37.2059C40.0588 36.9118 40.2059 36.5686 40.2059 36.1765V27.3529C40.2059 26.9608 40.0588 26.6176 39.7647 26.3235C39.4706 26.0294 39.1275 25.8824 38.7353 25.8824C38.3431 25.8824 38 26.0294 37.7059 26.3235C37.4118 26.6176 37.2647 26.9608 37.2647 27.3529V36.1765C37.2647 36.5686 37.4118 36.9118 37.7059 37.2059C38 37.5 38.3431 37.6471 38.7353 37.6471ZM38.7353 43.5294C39.1275 43.5294 39.4706 43.3823 39.7647 43.0882C40.0588 42.7941 40.2059 42.451 40.2059 42.0588C40.2059 41.6667 40.0588 41.3235 39.7647 41.0294C39.4706 40.7353 39.1275 40.5882 38.7353 40.5882C38.3431 40.5882 38 40.7353 37.7059 41.0294C37.4118 41.3235 37.2647 41.6667 37.2647 42.0588C37.2647 42.451 37.4118 42.7941 37.7059 43.0882C38 43.3823 38.3431 43.5294 38.7353 43.5294Z" fill="#FFC231"/>
</g>
<defs>
<clipPath id="clip0_265_193">
<rect width="90" height="90" fill="white" transform="translate(0.5)"/>
</clipPath>
</defs>
</svg>
