<svg width="44" height="44" viewBox="0 0 44 44" fill="none" xmlns="http://www.w3.org/2000/svg">
<path fill-rule="evenodd" clip-rule="evenodd" d="M21.88 0.119995C9.79601 0.119995 0 9.916 0 22C0 34.084 9.79601 43.88 21.88 43.88C33.964 43.88 43.76 34.084 43.76 22C43.76 9.916 33.964 0.119995 21.88 0.119995ZM8.12039 9.09641V21.8466H10.889V14.3588L14.623 20.4988H15.9527L19.7067 14.1939L19.7231 21.8466H22.4917L22.4553 9.09641H20.0328L15.337 17.0135L10.5612 9.09641H8.12039ZM28.7954 9.09641L23.1125 21.8466H26.1361L27.2723 19.1145H33.1827L34.3145 21.8466H37.4109L31.7098 9.09641H28.7954ZM32.2546 16.8741L30.2332 11.9943L28.204 16.8741H32.2546ZM11.9344 37.5554V27.2095H7.85436V24.8051H18.9653V27.2095H14.8852V37.5554H11.9344ZM25.5802 37.2821C26.4423 37.61 27.3774 37.7739 28.3852 37.7739C29.381 37.7739 30.2978 37.61 31.1356 37.2821C31.9857 36.9543 32.7203 36.4989 33.3396 35.916C33.9711 35.321 34.4628 34.6228 34.815 33.8214C35.1671 33.0078 35.3432 32.1274 35.3432 31.1802C35.3432 30.2209 35.1671 29.3466 34.815 28.5573C34.4628 27.7559 33.9711 27.0577 33.3396 26.4627C32.7203 25.8676 31.9857 25.4062 31.1356 25.0783C30.2978 24.7505 29.3749 24.5865 28.367 24.5865C27.3713 24.5865 26.4484 24.7505 25.5984 25.0783C24.7484 25.4062 24.0077 25.8676 23.3762 26.4627C22.7448 27.0577 22.253 27.7559 21.9008 28.5573C21.5608 29.3588 21.3908 30.2331 21.3908 31.1802C21.3908 32.1274 21.5608 33.0017 21.9008 33.8032C22.253 34.6046 22.7387 35.3028 23.358 35.8978C23.9894 36.4928 24.7302 36.9543 25.5802 37.2821ZM29.9335 34.9689C29.4599 35.1632 28.9377 35.2603 28.367 35.2603C27.7963 35.2603 27.2681 35.1632 26.7823 34.9689C26.2966 34.7746 25.8716 34.4953 25.5073 34.131C25.1552 33.7667 24.8759 33.3356 24.6695 32.8378C24.4752 32.3278 24.378 31.7753 24.378 31.1802C24.378 30.5731 24.4752 30.0206 24.6695 29.5227C24.8759 29.0248 25.1612 28.5938 25.5255 28.2295C25.8898 27.8652 26.3088 27.5859 26.7823 27.3916C27.2681 27.1973 27.7963 27.1002 28.367 27.1002C28.9377 27.1002 29.466 27.1973 29.9517 27.3916C30.4374 27.5859 30.8564 27.8652 31.2085 28.2295C31.5728 28.5938 31.8521 29.0248 32.0464 29.5227C32.2528 30.0206 32.356 30.5731 32.356 31.1802C32.356 31.7874 32.2528 32.3399 32.0464 32.8378C31.8521 33.3356 31.5728 33.7667 31.2085 34.131C30.8442 34.4953 30.4192 34.7746 29.9335 34.9689Z" fill="url(#paint0_linear_404_24)"/>
<defs>
<linearGradient id="paint0_linear_404_24" x1="60.5661" y1="-6.33701" x2="-33.4091" y2="26.9624" gradientUnits="userSpaceOnUse">
<stop stop-color="#FFC700"/>
<stop offset="1" stop-color="#FFA215" stop-opacity="0.96"/>
</linearGradient>
</defs>
</svg>
