<svg width="81" height="80" viewBox="0 0 81 80" fill="none" xmlns="http://www.w3.org/2000/svg">
<g id="material-symbols:cloud-download-rounded">
<path id="Vector" d="M21.6869 66.6667C16.6313 66.6667 12.3113 64.9167 8.72685 61.4167C5.14241 57.9167 3.3513 53.6389 3.35352 48.5834C3.35352 44.25 4.65907 40.3889 7.27018 37C9.8813 33.6112 13.298 31.4445 17.5202 30.5C18.798 26 21.1735 22.2223 24.6469 19.1667C28.1202 16.1112 32.1335 14.25 36.6869 13.5834V40.5L33.6869 37.5834C33.0757 36.9723 32.3113 36.6667 31.3935 36.6667C30.4757 36.6667 29.6846 37 29.0202 37.6667C28.4091 38.2778 28.1035 39.0556 28.1035 40C28.1035 40.9445 28.4091 41.7223 29.0202 42.3334L37.6869 51C38.3535 51.6667 39.1313 52 40.0202 52C40.9091 52 41.6869 51.6667 42.3535 51L51.0202 42.3334C51.6313 41.7223 51.9502 40.9578 51.9769 40.04C52.0035 39.1223 51.6846 38.3312 51.0202 37.6667C50.4091 37.0556 49.6446 36.7356 48.7269 36.7067C47.8091 36.6778 47.018 36.97 46.3535 37.5834L43.3535 40.5V13.5834C49.0757 14.3612 53.8402 16.9312 57.6469 21.2934C61.4535 25.6556 63.3557 30.78 63.3535 36.6667C67.1869 37.1112 70.368 38.7645 72.8969 41.6267C75.4257 44.4889 76.6891 47.8356 76.6869 51.6667C76.6869 55.8334 75.228 59.3756 72.3102 62.2934C69.3924 65.2112 65.8513 66.6689 61.6869 66.6667H21.6869Z" fill="url(#paint0_linear_265_163)"/>
</g>
<defs>
<linearGradient id="paint0_linear_265_163" x1="-11.0076" y1="101.071" x2="93.7401" y2="40.536" gradientUnits="userSpaceOnUse">
<stop stop-color="#1B0069"/>
<stop offset="1" stop-color="#AD00FF"/>
</linearGradient>
</defs>
</svg>
