<svg width="81" height="80" viewBox="0 0 81 80" fill="none" xmlns="http://www.w3.org/2000/svg">
<g id="mdi:gear">
<path id="Vector" d="M40.5004 51.6667C37.4062 51.6667 34.4388 50.4375 32.2509 48.2496C30.0629 46.0617 28.8338 43.0942 28.8338 40C28.8338 36.9058 30.0629 33.9384 32.2509 31.7504C34.4388 29.5625 37.4062 28.3334 40.5004 28.3334C43.5946 28.3334 46.5621 29.5625 48.75 31.7504C50.9379 33.9384 52.1671 36.9058 52.1671 40C52.1671 43.0942 50.9379 46.0617 48.75 48.2496C46.5621 50.4375 43.5946 51.6667 40.5004 51.6667ZM65.2671 43.2334C65.4004 42.1667 65.5004 41.1 65.5004 40C65.5004 38.9 65.4004 37.8 65.2671 36.6667L72.3004 31.2334C72.9338 30.7334 73.1004 29.8334 72.7004 29.1L66.0338 17.5667C65.6338 16.8334 64.7338 16.5334 64.0004 16.8334L55.7004 20.1667C53.9671 18.8667 52.1671 17.7334 50.0671 16.9L48.8338 8.06669C48.7661 7.67408 48.5616 7.31812 48.2565 7.06186C47.9514 6.80561 47.5655 6.66562 47.1671 6.66669H33.8338C33.0004 6.66669 32.3004 7.26669 32.1671 8.06669L30.9338 16.9C28.8338 17.7334 27.0338 18.8667 25.3004 20.1667L17.0004 16.8334C16.2671 16.5334 15.3671 16.8334 14.9671 17.5667L8.30044 29.1C7.86711 29.8334 8.06711 30.7334 8.70044 31.2334L15.7338 36.6667C15.6004 37.8 15.5004 38.9 15.5004 40C15.5004 41.1 15.6004 42.1667 15.7338 43.2334L8.70044 48.7667C8.06711 49.2667 7.86711 50.1667 8.30044 50.9L14.9671 62.4334C15.3671 63.1667 16.2671 63.4334 17.0004 63.1667L25.3004 59.8C27.0338 61.1334 28.8338 62.2667 30.9338 63.1L32.1671 71.9334C32.3004 72.7334 33.0004 73.3334 33.8338 73.3334H47.1671C48.0004 73.3334 48.7004 72.7334 48.8338 71.9334L50.0671 63.1C52.1671 62.2334 53.9671 61.1334 55.7004 59.8L64.0004 63.1667C64.7338 63.4334 65.6338 63.1667 66.0338 62.4334L72.7004 50.9C73.1004 50.1667 72.9338 49.2667 72.3004 48.7667L65.2671 43.2334Z" fill="url(#paint0_linear_265_156)"/>
</g>
<defs>
<linearGradient id="paint0_linear_265_156" x1="-4.62996" y1="116.542" x2="101.38" y2="73.4046" gradientUnits="userSpaceOnUse">
<stop stop-color="#1B0069"/>
<stop offset="1" stop-color="#AD00FF"/>
</linearGradient>
</defs>
</svg>
