<svg width="35" height="35" viewBox="0 0 35 35" fill="none" xmlns="http://www.w3.org/2000/svg">
<g id="Iconsax/Bold/ticketstar" clip-path="url(#clip0_433_557)">
<path id="Vector" d="M19.0455 26.7247L24.2108 22.3948L22.2707 20.0804C22.0201 19.7816 22.0662 19.3384 22.3574 19.0943C22.6486 18.8502 23.093 18.8822 23.3436 19.1811L25.2837 21.4955L26.1726 20.7503C29.1997 18.2127 29.438 16.4733 27.1364 13.5876C27.0284 13.4432 26.8451 13.349 26.6619 13.3329C26.4724 13.3091 26.2971 13.3647 26.1438 13.4932C25.071 14.3926 23.4444 14.2424 22.5451 13.1695C21.6457 12.0966 21.7818 10.4688 22.8547 9.56944C23.0003 9.44738 23.0933 9.2781 23.1029 9.08729C23.1191 8.90415 23.0583 8.70715 22.935 8.57563C20.4955 5.8056 18.7412 5.73644 15.7141 8.27398L14.8251 9.01919L16.7652 11.3336C17.0158 11.6325 16.9697 12.0756 16.6785 12.3197C16.3873 12.5638 15.9429 12.5318 15.6923 12.233L13.7522 9.91857L8.58699 14.2485C5.44493 16.8824 5.29001 18.6433 7.92392 21.7854L11.5086 26.0617C14.1425 29.2037 15.9035 29.3586 19.0455 26.7247ZM12.4857 21.7324L12.6203 20.4453C12.6317 20.3966 12.6008 20.3442 12.561 20.3123L11.5765 19.4803C11.3981 19.3298 11.3129 19.088 11.3762 18.8522C11.4319 18.6229 11.6106 18.447 11.8422 18.3964L13.109 18.1174C13.1322 18.1109 13.1538 18.0995 13.1723 18.084C13.1908 18.0685 13.2058 18.0492 13.2163 18.0275L13.7122 16.8289C13.749 16.7327 13.8128 16.6532 13.8894 16.5889C13.9593 16.5315 14.0408 16.4899 14.1283 16.4671C14.2159 16.4442 14.3073 16.4406 14.3963 16.4566C14.4854 16.4725 14.5699 16.5076 14.644 16.5593C14.7182 16.6111 14.7802 16.6784 14.8259 16.7565L15.4731 17.8711C15.4864 17.8923 15.5041 17.9106 15.5248 17.9246C15.5456 17.9387 15.5691 17.9482 15.5937 17.9527L16.8846 18.045C16.9992 18.0528 17.1093 18.0926 17.2025 18.1597C17.2957 18.2269 17.3682 18.3188 17.412 18.425C17.4585 18.5314 17.4725 18.6492 17.4524 18.7636C17.4322 18.878 17.3787 18.9839 17.2986 19.068L16.4397 20.0359C16.4095 20.0754 16.395 20.1248 16.3991 20.1743L16.7075 21.4295C16.7581 21.6611 16.6807 21.8956 16.4968 22.0498C16.4101 22.1248 16.3038 22.1733 16.1904 22.1898C16.077 22.2062 15.9613 22.1898 15.8569 22.1426L14.6748 21.6198C14.6274 21.5943 14.5775 21.597 14.5392 21.6291L13.4362 22.3058C13.233 22.437 12.9781 22.4288 12.7832 22.3052C12.5729 22.1944 12.4647 21.9719 12.4857 21.7324Z" fill="white"/>
</g>
<defs>
<clipPath id="clip0_433_557">
<rect width="24" height="24" fill="white" transform="translate(34.2852 18.9873) rotate(140.028)"/>
</clipPath>
</defs>
</svg>
