<svg width="91" height="90" viewBox="0 0 91 90" fill="none" xmlns="http://www.w3.org/2000/svg">
<g id="material-symbols:time-auto-outline" clip-path="url(#clip0_265_188)">
<path id="Vector" d="M14.7857 60.7143H20.0714L21.7143 55.7143H30.5714L32.2143 60.7143H37.6429L29.0714 36.5714H23.3571L14.7857 60.7143ZM23.0714 51.5714L26.2143 42.1429L29.2857 51.5714H23.0714ZM17.6429 20.7143V15H34.7857V20.7143H17.6429ZM26.2143 75C22.6905 75 19.3686 74.3209 16.2486 72.9629C13.1286 71.6048 10.4029 69.76 8.07143 67.4286C5.7381 65.0952 3.89238 62.3686 2.53429 59.2486C1.17619 56.1286 0.498099 52.8076 0.500004 49.2857C0.500004 45.7619 1.17905 42.44 2.53715 39.32C3.89524 36.2 5.74 33.4743 8.07143 31.1429C10.4048 28.8095 13.1314 26.9638 16.2514 25.6057C19.3714 24.2476 22.6924 23.5695 26.2143 23.5714C29.1667 23.5714 32 24.0476 34.7143 25C37.4286 25.9524 39.9762 27.3333 42.3571 29.1429L46.3571 25.1429L50.3571 29.1429L46.3571 33.1429C48.1667 35.5238 49.5476 38.0714 50.5 40.7857C51.4524 43.5 51.9286 46.3333 51.9286 49.2857C51.9286 52.8095 51.2495 56.1314 49.8914 59.2514C48.5333 62.3714 46.6886 65.0971 44.3571 67.4286C42.0238 69.7619 39.2971 71.6076 36.1771 72.9657C33.0571 74.3238 29.7362 75.0019 26.2143 75ZM26.2143 69.2857C31.7381 69.2857 36.4524 67.3333 40.3571 63.4286C44.2619 59.5238 46.2143 54.8095 46.2143 49.2857C46.2143 43.7619 44.2619 39.0476 40.3571 35.1429C36.4524 31.2381 31.7381 29.2857 26.2143 29.2857C20.6905 29.2857 15.9762 31.2381 12.0714 35.1429C8.16667 39.0476 6.21429 43.7619 6.21429 49.2857C6.21429 54.8095 8.16667 59.5238 12.0714 63.4286C15.9762 67.3333 20.6905 69.2857 26.2143 69.2857Z" fill="#FFC231"/>
</g>
<defs>
<clipPath id="clip0_265_188">
<rect width="90" height="90" fill="white" transform="translate(0.5)"/>
</clipPath>
</defs>
</svg>
