<svg width="75" height="65" viewBox="0 0 75 65" fill="none" xmlns="http://www.w3.org/2000/svg">
<g id="Upload icon">
<path id="Vector" d="M39.0053 14.9735C38.8555 15.4759 39.1416 16.0038 39.6437 16.1536L39.7433 16.1833L39.7477 16.1783C40.2185 16.2634 40.6855 15.9815 40.8239 15.5144C42.0847 11.2779 46.057 8.31831 50.4825 8.31831C51.0065 8.31831 51.4314 7.89335 51.4314 7.36942C51.4314 6.84546 51.0065 6.42053 50.4825 6.42053C45.0435 6.42053 40.4729 10.0418 39.0053 14.9735ZM39.0053 14.9735L39.16 15.0196M39.0053 14.9735C39.0053 14.9735 39.0053 14.9735 39.0053 14.9736L39.16 15.0196M39.16 15.0196C39.0357 15.4364 39.273 15.8746 39.6898 15.9989L39.16 15.0196Z" fill="#4C95EB" stroke="#F9FFF9" stroke-width="0.322847"/>
<path id="Vector_2" d="M61.5058 45.955H56.7811C56.3463 45.955 55.9936 45.6024 55.9936 45.1676C55.9936 44.7328 56.3463 44.3801 56.7811 44.3801H61.5058C68.0185 44.3801 73.3176 39.081 73.3176 32.5683C73.3176 26.0555 68.0185 20.7564 61.5058 20.7564H61.3921C61.1638 20.7564 60.9467 20.6574 60.797 20.4848C60.6474 20.3121 60.5799 20.0832 60.6126 19.857C60.6829 19.3666 60.7183 18.8739 60.7183 18.3941C60.7183 12.7497 56.1257 8.1571 50.4813 8.1571C48.2854 8.1571 46.1913 8.84331 44.4251 10.142C44.037 10.4272 43.4858 10.3007 43.2614 9.87373C38.2594 0.348925 25.1947 -0.930159 18.4213 7.35559C15.5679 10.8463 14.4468 15.3871 15.3452 19.8127C15.4442 20.3014 15.0701 20.757 14.5735 20.757H14.2579C7.74514 20.757 2.44608 26.0561 2.44608 32.5689C2.44608 39.0817 7.74514 44.3807 14.2579 44.3807H18.9826C19.4174 44.3807 19.7701 44.7334 19.7701 45.1682C19.7701 45.603 19.4174 45.9556 18.9826 45.9556H14.2579C6.87658 45.9556 0.871094 39.9502 0.871094 32.5688C0.871094 25.3946 6.5441 19.5201 13.6398 19.1961C12.9732 14.6046 14.2478 9.97326 17.2018 6.35891C24.4537 -2.51289 38.3514 -1.51848 44.2263 8.37422C46.1005 7.19922 48.2451 6.58281 50.4811 6.58281C57.3195 6.58281 62.7384 12.4033 62.2642 19.2035C69.2945 19.5977 74.8922 25.4412 74.8922 32.5682C74.8922 39.9502 68.8867 45.9551 61.5054 45.9551L61.5058 45.955Z" fill="#4C95EB"/>
<path id="Vector_3" d="M17.9284 44.7229C17.9284 55.6673 26.8322 64.571 37.7765 64.571C48.7209 64.571 57.6245 55.6672 57.6245 44.7229C57.6245 33.7784 48.7209 24.8748 37.7765 24.8748C26.832 24.8748 17.9284 33.7786 17.9284 44.7229ZM19.8265 44.7229C19.8265 34.8256 27.879 26.773 37.7765 26.773C47.6738 26.773 55.7264 34.8255 55.7264 44.7229C55.7264 54.6202 47.6738 62.6728 37.7765 62.6728C27.8792 62.6728 19.8265 54.6203 19.8265 44.7229Z" fill="#4C95EB" stroke="#F9FFF9" stroke-width="0.322847"/>
<g id="arrow">
<path id="Vector_4" d="M37.3972 52.648C37.3972 53.0555 37.7276 53.3859 38.1351 53.3859C38.5425 53.3859 38.873 53.0559 38.873 52.648V37.6587C38.873 37.2512 38.5426 36.9207 38.1351 36.9207C37.7276 36.9207 37.3972 37.2512 37.3972 37.6587V52.648Z" fill="#4C95EB" stroke="#4C95EB" stroke-width="0.322847"/>
<path id="Vector_5" d="M38.1359 38.7036L34.0458 42.7937C33.7578 43.0822 33.2903 43.0821 33.0021 42.7939C32.7138 42.5056 32.7138 42.0385 33.0021 41.7502L37.614 37.1383L38.1359 38.7036ZM38.1359 38.7036L42.2261 42.7938C42.37 42.9378 42.5595 43.01 42.7479 43.01L38.1359 38.7036ZM42.748 43.01C42.9361 43.01 43.1256 42.9384 43.2698 42.7938L42.748 43.01Z" fill="#4C95EB" stroke="#4C95EB" stroke-width="0.322847"/>
</g>
</g>
</svg>
