<svg width="51" height="50" viewBox="0 0 51 50" fill="none" xmlns="http://www.w3.org/2000/svg">
<g id="Frame">
<g clip-path="url(#clip0_433_560)">
<rect x="0.378906" width="50" height="50" rx="25" fill="url(#paint0_linear_433_560)"/>
<g id="Mask group">
<mask id="mask0_433_560" style="mask-type:luminance" maskUnits="userSpaceOnUse" x="0" y="0" width="51" height="50">
<g id="Group">
<path id="Vector" d="M50.3789 0H0.378906V50H50.3789V0Z" fill="white"/>
</g>
</mask>
<g mask="url(#mask0_433_560)">
<g id="Group_2">
<path id="Vector_2" d="M29.2854 36V40.625C29.2854 41.661 28.8739 42.6546 28.1413 43.3871C27.4088 44.1197 26.4152 44.5312 25.3792 44.5312C24.3432 44.5312 23.3496 44.1197 22.617 43.3871C21.8845 42.6546 21.4729 41.661 21.4729 40.625V36C19.907 35.3994 18.4996 34.4476 17.3592 33.2178C16.2188 31.988 15.3757 30.513 14.8948 28.9062H14.8323C13.9327 28.9078 13.0667 28.5645 12.4126 27.9469C11.7585 27.3293 11.366 26.4844 11.316 25.5862C11.2659 24.688 11.5621 23.8048 12.1436 23.1184C12.725 22.4319 13.5475 21.9945 14.4417 21.8961V21.0938C14.4417 15.0531 19.3386 10.1562 25.3792 10.1562C31.4198 10.1562 36.3167 15.0531 36.3167 21.0938V21.8961C37.2178 21.9933 38.0465 22.4347 38.63 23.1282C39.2134 23.8217 39.5065 24.7138 39.448 25.6182C39.3896 26.5226 38.9841 27.3695 38.3162 27.9822C37.6483 28.5948 36.7697 28.9259 35.8636 28.9062C35.3828 30.5132 34.5397 31.9883 33.3993 33.2183C32.2589 34.4482 30.8515 35.3994 29.2854 36Z" fill="#92594B"/>
<g id="Mask group_2">
<mask id="mask1_433_560" style="mask-type:alpha" maskUnits="userSpaceOnUse" x="11" y="10" width="29" height="35">
<g id="Group_3">
<path id="Vector_3" d="M29.2854 36V40.625C29.2854 41.661 28.8739 42.6546 28.1413 43.3871C27.4088 44.1197 26.4152 44.5312 25.3792 44.5312C24.3432 44.5312 23.3496 44.1197 22.617 43.3871C21.8845 42.6546 21.4729 41.661 21.4729 40.625V36C19.907 35.3994 18.4996 34.4476 17.3592 33.2178C16.2188 31.988 15.3757 30.513 14.8948 28.9062H14.8323C13.9327 28.9078 13.0667 28.5645 12.4126 27.9469C11.7585 27.3293 11.366 26.4844 11.316 25.5862C11.2659 24.688 11.5621 23.8048 12.1436 23.1184C12.725 22.4319 13.5475 21.9945 14.4417 21.8961V21.0938C14.4417 15.0531 19.3386 10.1562 25.3792 10.1562C31.4198 10.1562 36.3167 15.0531 36.3167 21.0938V21.8961C37.2178 21.9933 38.0465 22.4347 38.63 23.1282C39.2134 23.8217 39.5065 24.7138 39.448 25.6182C39.3896 26.5226 38.9841 27.3695 38.3162 27.9822C37.6483 28.5948 36.7697 28.9259 35.8636 28.9062C35.3828 30.5132 34.5397 31.9883 33.3993 33.2183C32.2589 34.4482 30.8515 35.3994 29.2854 36Z" fill="white"/>
</g>
</mask>
<g mask="url(#mask1_433_560)">
<g id="Group_4">
<g id="Vector_4" style="mix-blend-mode:overlay" opacity="0.364">
<path d="M25.3789 10.1562C31.4195 10.1562 36.3164 15.0531 36.3164 21.0938V25.7812C36.3164 31.8219 31.4195 36.7188 25.3789 36.7188C19.3383 36.7188 14.4414 31.8219 14.4414 25.7812V21.0938C14.4414 15.0531 19.3383 10.1562 25.3789 10.1562Z" fill="white"/>
</g>
</g>
</g>
</g>
<g id="Group_5">
<g id="Group_6">
<path id="Vector_5" d="M19.1289 22.2656C19.1289 22.4195 19.1592 22.5719 19.2181 22.7141C19.277 22.8563 19.3633 22.9854 19.4721 23.0943C19.581 23.2031 19.7101 23.2894 19.8523 23.3483C19.9945 23.4072 20.1469 23.4375 20.3008 23.4375C20.4547 23.4375 20.6071 23.4072 20.7492 23.3483C20.8914 23.2894 21.0206 23.2031 21.1294 23.0943C21.2382 22.9854 21.3246 22.8563 21.3835 22.7141C21.4423 22.5719 21.4727 22.4195 21.4727 22.2656C21.4727 21.9548 21.3492 21.6568 21.1294 21.437C20.9097 21.2172 20.6116 21.0938 20.3008 21.0938C19.99 21.0938 19.6919 21.2172 19.4721 21.437C19.2524 21.6568 19.1289 21.9548 19.1289 22.2656ZM32.6008 21.8023C32.5815 21.6482 32.5017 21.508 32.3791 21.4127C32.2565 21.3173 32.101 21.2745 31.9469 21.2938L28.8219 21.6844C28.6705 21.7069 28.5341 21.7878 28.4416 21.9097C28.3491 22.0315 28.3079 22.1848 28.3269 22.3366C28.3459 22.4884 28.4235 22.6268 28.5431 22.7221C28.6628 22.8175 28.815 22.8623 28.9672 22.8469L32.0922 22.4562C32.2463 22.4369 32.3865 22.3572 32.4819 22.2346C32.5772 22.112 32.62 21.9565 32.6008 21.8023Z" fill="#1B0640"/>
</g>
</g>
<g id="Group_7">
<path id="Vector_6" d="M26.7797 7.03126C26.8794 6.71401 27.0777 6.43684 27.3458 6.24008C27.6139 6.04331 27.9377 5.93721 28.2703 5.93721C28.6028 5.93721 28.9267 6.04331 29.1948 6.24008C29.4629 6.43684 29.6612 6.71401 29.7609 7.03126H30.1969C30.3366 6.70983 30.5803 6.44471 30.8889 6.27852C31.1975 6.11232 31.553 6.05471 31.8983 6.11493C32.2436 6.17515 32.5586 6.34971 32.7927 6.61055C33.0268 6.8714 33.1664 7.20338 33.189 7.55314C33.2476 7.57658 33.3062 7.60236 33.364 7.62736C33.6322 7.40377 33.9675 7.27643 34.3165 7.26565C34.6654 7.25488 35.008 7.36129 35.2894 7.56791C35.5708 7.77453 35.7749 8.06946 35.8692 8.40563C35.9634 8.74181 35.9424 9.09986 35.8094 9.42267L35.9281 9.56173C36.2605 9.49436 36.6057 9.53693 36.9117 9.68304C37.2178 9.82914 37.468 10.0708 37.6245 10.3716C37.7811 10.6724 37.8356 11.016 37.7797 11.3505C37.7238 11.685 37.5607 11.9922 37.3148 12.2258C37.3479 12.3484 37.3776 12.4719 37.4039 12.5961C37.7029 12.706 37.9613 12.9046 38.1442 13.1654C38.3272 13.4262 38.4261 13.7367 38.4276 14.0553C38.4292 14.3739 38.3333 14.6853 38.1528 14.9479C37.9723 15.2104 37.7159 15.4115 37.4179 15.5242L37.3812 15.7774C37.6489 15.9052 37.8747 16.1065 38.0321 16.3579C38.1896 16.6093 38.2723 16.9003 38.2705 17.1969C38.2687 17.4935 38.1825 17.7835 38.022 18.0329C37.8614 18.2823 37.6333 18.4809 37.364 18.6055C37.4538 18.8156 37.4962 19.0428 37.4883 19.2711C37.648 19.4683 37.7513 19.705 37.7874 19.9561C37.8235 20.2073 37.791 20.4635 37.6933 20.6977C37.5956 20.9318 37.4364 21.1352 37.2325 21.2862C37.0286 21.4372 36.7876 21.5303 36.5351 21.5555L36.3172 23.0469C35.9734 22.532 35.6594 21.8906 35.3726 21.1211C35.2074 20.9465 35.0899 20.7323 35.0312 20.4992C34.7051 20.272 34.478 19.9289 34.3963 19.54C34.3145 19.151 34.3843 18.7455 34.5914 18.4063L34.5742 18.3297C34.3594 18.2455 34.166 18.1147 34.0078 17.9468C33.8496 17.7789 33.7305 17.5781 33.6591 17.3588C33.5877 17.1394 33.5657 16.9069 33.5948 16.6781C33.6239 16.4493 33.7033 16.2297 33.8273 16.0352C33.5272 16.2125 33.1762 16.284 32.8306 16.2382C32.485 16.1925 32.1648 16.0321 31.9211 15.7828C31.811 16.0771 31.6147 16.3313 31.3579 16.5123C31.1011 16.6934 30.7957 16.7928 30.4816 16.7976C30.1674 16.8024 29.8591 16.7124 29.5969 16.5393C29.3347 16.3662 29.1308 16.1181 29.0117 15.8274C28.9305 15.836 28.8492 15.8443 28.768 15.8524C28.6532 16.1191 28.4664 16.3485 28.2286 16.515C27.9907 16.6814 27.7112 16.7783 27.4213 16.7948C27.1314 16.8113 26.8427 16.7467 26.5875 16.6082C26.3323 16.4698 26.1208 16.2629 25.9765 16.011L25.7969 16.0133C25.6562 16.2579 25.4519 16.4599 25.2057 16.5978C24.9594 16.7357 24.6805 16.8043 24.3984 16.7964C24.1163 16.7885 23.8416 16.7043 23.6035 16.5528C23.3654 16.4013 23.1728 16.1881 23.0461 15.936L22.7258 15.9117C22.5931 16.1879 22.3823 16.4189 22.1194 16.5761C21.8565 16.7334 21.5532 16.8099 21.2472 16.7962C20.9412 16.7824 20.646 16.6791 20.3983 16.4989C20.1505 16.3187 19.9612 16.0697 19.8539 15.7828C19.5703 16.0711 19.1758 16.25 18.739 16.25C18.2211 16.25 17.7625 15.9985 17.4781 15.611L17.4609 15.732C17.6576 15.9154 17.8036 16.1464 17.8849 16.4026C17.9662 16.6589 17.98 16.9319 17.9249 17.195C17.8698 17.4582 17.7478 17.7027 17.5706 17.9049C17.3933 18.1071 17.1669 18.2601 16.9133 18.3492C17.0609 18.5698 17.15 18.8244 17.172 19.089C17.194 19.3535 17.1482 19.6193 17.039 19.8613C16.9298 20.1033 16.7607 20.3134 16.5478 20.4719C16.3348 20.6304 16.085 20.732 15.8219 20.7672C15.4146 21.5577 14.9536 22.3194 14.4422 23.0469L14.2953 21.5445C13.9886 21.495 13.707 21.3454 13.4944 21.1189C13.2817 20.8925 13.15 20.602 13.1199 20.2928C13.0897 19.9836 13.1628 19.6732 13.3276 19.4099C13.4925 19.1466 13.7399 18.9454 14.0312 18.8375L14.0219 18.7391C13.668 18.6971 13.3391 18.5354 13.0897 18.2808C12.8403 18.0263 12.6854 17.6941 12.6508 17.3394C12.6161 16.9847 12.7038 16.6288 12.8991 16.3308C13.0945 16.0328 13.3859 15.8105 13.725 15.7008L13.7148 15.5883C13.3626 15.5108 13.0481 15.3138 12.8246 15.0308C12.6011 14.7478 12.4823 14.3962 12.4885 14.0356C12.4947 13.6751 12.6254 13.3277 12.8584 13.0525C13.0915 12.7774 13.4125 12.5913 13.7672 12.5258C13.7773 12.4789 13.7883 12.4336 13.8 12.3867C13.5043 12.1864 13.2862 11.8909 13.1819 11.5494C13.0777 11.2079 13.0935 10.8409 13.2269 10.5097C13.3602 10.1784 13.603 9.9028 13.9148 9.72876C14.2266 9.55472 14.5887 9.49274 14.9406 9.55314C14.8167 9.23639 14.7995 8.88785 14.8917 8.56046C14.9839 8.23307 15.1804 7.94469 15.4514 7.73912C15.7223 7.53355 16.053 7.42201 16.3931 7.42144C16.7332 7.42087 17.0643 7.53129 17.3359 7.73595C17.3167 7.36965 17.4269 7.00825 17.6473 6.71506C17.8678 6.42187 18.1843 6.21557 18.5415 6.13229C18.8988 6.04901 19.2739 6.09407 19.6013 6.25957C19.9286 6.42507 20.1873 6.70046 20.332 7.03751L20.3711 7.03595C20.4693 6.71706 20.667 6.43797 20.9352 6.23956C21.2035 6.04114 21.5283 5.93381 21.8619 5.93329C22.1956 5.93277 22.5207 6.03907 22.7896 6.23664C23.0585 6.43422 23.257 6.71268 23.3562 7.03126H23.4992C23.5989 6.71401 23.7972 6.43684 24.0653 6.24008C24.3334 6.04331 24.6573 5.93721 24.9898 5.93721C25.3224 5.93721 25.6462 6.04331 25.9143 6.24008C26.1824 6.43684 26.3807 6.71401 26.4804 7.03126H26.7797Z" fill="#362C47"/>
<g id="Mask group_3">
<mask id="mask2_433_560" style="mask-type:alpha" maskUnits="userSpaceOnUse" x="12" y="5" width="27" height="19">
<g id="Group_8">
<path id="Vector_7" d="M26.7797 7.03126C26.8794 6.71401 27.0777 6.43684 27.3458 6.24008C27.6139 6.04331 27.9377 5.93721 28.2703 5.93721C28.6028 5.93721 28.9267 6.04331 29.1948 6.24008C29.4629 6.43684 29.6612 6.71401 29.7609 7.03126H30.1969C30.3366 6.70983 30.5803 6.44471 30.8889 6.27852C31.1975 6.11232 31.553 6.05471 31.8983 6.11493C32.2436 6.17515 32.5586 6.34971 32.7927 6.61055C33.0268 6.8714 33.1664 7.20338 33.189 7.55314C33.2476 7.57658 33.3062 7.60236 33.364 7.62736C33.6322 7.40377 33.9675 7.27643 34.3165 7.26565C34.6654 7.25488 35.008 7.36129 35.2894 7.56791C35.5708 7.77453 35.7749 8.06946 35.8692 8.40563C35.9634 8.74181 35.9424 9.09986 35.8094 9.42267L35.9281 9.56173C36.2605 9.49436 36.6057 9.53693 36.9117 9.68304C37.2178 9.82914 37.468 10.0708 37.6245 10.3716C37.7811 10.6724 37.8356 11.016 37.7797 11.3505C37.7238 11.685 37.5607 11.9922 37.3148 12.2258C37.3479 12.3484 37.3776 12.4719 37.4039 12.5961C37.7029 12.706 37.9613 12.9046 38.1442 13.1654C38.3272 13.4262 38.4261 13.7367 38.4276 14.0553C38.4292 14.3739 38.3333 14.6853 38.1528 14.9479C37.9723 15.2104 37.7159 15.4115 37.4179 15.5242L37.3812 15.7774C37.6489 15.9052 37.8747 16.1065 38.0321 16.3579C38.1896 16.6093 38.2723 16.9003 38.2705 17.1969C38.2687 17.4935 38.1825 17.7835 38.022 18.0329C37.8614 18.2823 37.6333 18.4809 37.364 18.6055C37.4538 18.8156 37.4962 19.0428 37.4883 19.2711C37.648 19.4683 37.7513 19.705 37.7874 19.9561C37.8235 20.2073 37.791 20.4635 37.6933 20.6977C37.5956 20.9318 37.4364 21.1352 37.2325 21.2862C37.0286 21.4372 36.7876 21.5303 36.5351 21.5555L36.3172 23.0469C35.9734 22.532 35.6594 21.8906 35.3726 21.1211C35.2074 20.9465 35.0899 20.7323 35.0312 20.4992C34.7051 20.272 34.478 19.9289 34.3963 19.54C34.3145 19.151 34.3843 18.7455 34.5914 18.4063L34.5742 18.3297C34.3594 18.2455 34.166 18.1147 34.0078 17.9468C33.8496 17.7789 33.7305 17.5781 33.6591 17.3588C33.5877 17.1394 33.5657 16.9069 33.5948 16.6781C33.6239 16.4493 33.7033 16.2297 33.8273 16.0352C33.5272 16.2125 33.1762 16.284 32.8306 16.2382C32.485 16.1925 32.1648 16.0321 31.9211 15.7828C31.811 16.0771 31.6147 16.3313 31.3579 16.5123C31.1011 16.6934 30.7957 16.7928 30.4816 16.7976C30.1674 16.8024 29.8591 16.7124 29.5969 16.5393C29.3347 16.3662 29.1308 16.1181 29.0117 15.8274C28.9305 15.836 28.8492 15.8443 28.768 15.8524C28.6532 16.1191 28.4664 16.3485 28.2286 16.515C27.9907 16.6814 27.7112 16.7783 27.4213 16.7948C27.1314 16.8113 26.8427 16.7467 26.5875 16.6082C26.3323 16.4698 26.1208 16.2629 25.9765 16.011L25.7969 16.0133C25.6562 16.2579 25.4519 16.4599 25.2057 16.5978C24.9594 16.7357 24.6805 16.8043 24.3984 16.7964C24.1163 16.7885 23.8416 16.7043 23.6035 16.5528C23.3654 16.4013 23.1728 16.1881 23.0461 15.936L22.7258 15.9117C22.5931 16.1879 22.3823 16.4189 22.1194 16.5761C21.8565 16.7334 21.5532 16.8099 21.2472 16.7962C20.9412 16.7824 20.646 16.6791 20.3983 16.4989C20.1505 16.3187 19.9612 16.0697 19.8539 15.7828C19.5703 16.0711 19.1758 16.25 18.739 16.25C18.2211 16.25 17.7625 15.9985 17.4781 15.611L17.4609 15.732C17.6576 15.9154 17.8036 16.1464 17.8849 16.4026C17.9662 16.6589 17.98 16.9319 17.9249 17.195C17.8698 17.4582 17.7478 17.7027 17.5706 17.9049C17.3933 18.1071 17.1669 18.2601 16.9133 18.3492C17.0609 18.5698 17.15 18.8244 17.172 19.089C17.194 19.3535 17.1482 19.6193 17.039 19.8613C16.9298 20.1033 16.7607 20.3134 16.5478 20.4719C16.3348 20.6304 16.085 20.732 15.8219 20.7672C15.4146 21.5577 14.9536 22.3194 14.4422 23.0469L14.2953 21.5445C13.9886 21.495 13.707 21.3454 13.4944 21.1189C13.2817 20.8925 13.15 20.602 13.1199 20.2928C13.0897 19.9836 13.1628 19.6732 13.3276 19.4099C13.4925 19.1466 13.7399 18.9454 14.0312 18.8375L14.0219 18.7391C13.668 18.6971 13.3391 18.5354 13.0897 18.2808C12.8403 18.0263 12.6854 17.6941 12.6508 17.3394C12.6161 16.9847 12.7038 16.6288 12.8991 16.3308C13.0945 16.0328 13.3859 15.8105 13.725 15.7008L13.7148 15.5883C13.3626 15.5108 13.0481 15.3138 12.8246 15.0308C12.6011 14.7478 12.4823 14.3962 12.4885 14.0356C12.4947 13.6751 12.6254 13.3277 12.8584 13.0525C13.0915 12.7774 13.4125 12.5913 13.7672 12.5258C13.7773 12.4789 13.7883 12.4336 13.8 12.3867C13.5043 12.1864 13.2862 11.8909 13.1819 11.5494C13.0777 11.2079 13.0935 10.8409 13.2269 10.5097C13.3602 10.1784 13.603 9.9028 13.9148 9.72876C14.2266 9.55472 14.5887 9.49274 14.9406 9.55314C14.8167 9.23639 14.7995 8.88785 14.8917 8.56046C14.9839 8.23307 15.1804 7.94469 15.4514 7.73912C15.7223 7.53355 16.053 7.42201 16.3931 7.42144C16.7332 7.42087 17.0643 7.53129 17.3359 7.73595C17.3167 7.36965 17.4269 7.00825 17.6473 6.71506C17.8678 6.42187 18.1843 6.21557 18.5415 6.13229C18.8988 6.04901 19.2739 6.09407 19.6013 6.25957C19.9286 6.42507 20.1873 6.70046 20.332 7.03751L20.3711 7.03595C20.4693 6.71706 20.667 6.43797 20.9352 6.23956C21.2035 6.04114 21.5283 5.93381 21.8619 5.93329C22.1956 5.93277 22.5207 6.03907 22.7896 6.23664C23.0585 6.43422 23.257 6.71268 23.3562 7.03126H23.4992C23.5989 6.71401 23.7972 6.43684 24.0653 6.24008C24.3334 6.04331 24.6573 5.93721 24.9898 5.93721C25.3224 5.93721 25.6462 6.04331 25.9143 6.24008C26.1824 6.43684 26.3807 6.71401 26.4804 7.03126H26.7797Z" fill="white"/>
</g>
</mask>
<g mask="url(#mask2_433_560)">
<g id="Group_9">
<g id="Vector_8" style="mix-blend-mode:overlay" opacity="0.259">
<path d="M12.0977 5.46875H38.6602V23.4375H12.0977V5.46875Z" fill="white"/>
</g>
</g>
</g>
</g>
</g>
<g id="Group_10">
<path id="Vector_9" d="M21.4727 38.2812V40.625C21.4727 41.661 21.8842 42.6546 22.6168 43.3871C23.3493 44.1197 24.3429 44.5312 25.3789 44.5312C26.4149 44.5312 27.4085 44.1197 28.141 43.3871C28.8736 42.6546 29.2852 41.661 29.2852 40.625V38.2812L34.4781 39.8789C35.9153 40.3211 37.1728 41.2125 38.0661 42.422C38.9594 43.6315 39.4414 45.0956 39.4414 46.5992V50H11.3164V46.5992C11.3164 45.0956 11.7984 43.6315 12.6917 42.422C13.585 41.2125 14.8425 40.3211 16.2797 39.8789L21.4727 38.2812Z" fill="#7555CA"/>
</g>
<g id="Group_11">
<g id="Group_12">
<g id="Vector_10" style="mix-blend-mode:overlay" opacity="0.36">
<path d="M22.4492 25.7812C22.4492 25.6258 22.511 25.4768 22.6208 25.3669C22.7307 25.257 22.8798 25.1953 23.0352 25.1953C23.1906 25.1953 23.3396 25.257 23.4495 25.3669C23.5594 25.4768 23.6211 25.6258 23.6211 25.7812C23.6211 26.4344 24.3352 27.1484 25.3789 27.1484C26.4227 27.1484 27.1367 26.4344 27.1367 25.7812C27.1367 25.6258 27.1985 25.4768 27.3083 25.3669C27.4182 25.257 27.5673 25.1953 27.7227 25.1953C27.8781 25.1953 28.0271 25.257 28.137 25.3669C28.2469 25.4768 28.3086 25.6258 28.3086 25.7812C28.3086 27.0813 27.0695 28.3203 25.3789 28.3203C23.6883 28.3203 22.4492 27.0813 22.4492 25.7812Z" fill="black"/>
</g>
</g>
</g>
<g id="Group_13">
<g id="Group_14">
<path id="Vector_11" fill-rule="evenodd" clip-rule="evenodd" d="M21.9516 28.6508C20.7031 28.9813 19.9102 30.1484 19.9102 31.4391V35.082C19.9102 35.8609 20.2961 36.593 20.9859 36.9555C22.0719 37.5258 23.825 38.2812 25.5016 38.2812C27.1734 38.2812 28.8297 37.5289 29.8453 36.9578C30.4953 36.593 30.8477 35.8883 30.8477 35.1437V31.4391C30.8477 30.1477 30.0547 28.9813 28.8062 28.6508C27.7797 28.3797 26.5156 28.125 25.3789 28.125C24.2422 28.125 22.9781 28.3797 21.9516 28.6508ZM22.1805 29.7523C21.5539 29.9258 21.1523 30.5078 21.1523 31.157V33.243C21.1523 34.075 21.5906 34.85 22.3555 35.1781C23.2023 35.5414 24.375 35.9375 25.4602 35.9375C26.5422 35.9375 27.6844 35.5437 28.5063 35.1812C29.2531 34.8516 29.6758 34.0875 29.6758 33.2711V31.1695C29.6758 30.5133 29.2664 29.9273 28.6344 29.757C27.7961 29.5305 26.5672 29.2664 25.3789 29.2664C24.1977 29.2664 22.9977 29.5266 22.1805 29.7523Z" fill="#362C47"/>
</g>
</g>
<path id="Vector_12" d="M22.823 32.9506C22.6721 32.9128 22.5424 32.8168 22.4625 32.6834C22.3825 32.5501 22.3587 32.3905 22.3964 32.2396C22.4341 32.0888 22.5302 31.9591 22.6635 31.8791C22.7969 31.7991 22.9565 31.7753 23.1073 31.8131C25.0081 32.2888 26.3613 32.0631 27.2386 31.1865C27.2922 31.1289 27.3569 31.0827 27.4288 31.0507C27.5007 31.0187 27.5783 31.0015 27.6569 31.0001C27.7356 30.9987 27.8138 31.0132 27.8867 31.0426C27.9597 31.0721 28.026 31.116 28.0816 31.1716C28.1372 31.2273 28.1811 31.2935 28.2106 31.3665C28.24 31.4395 28.2545 31.5176 28.2531 31.5963C28.2517 31.6749 28.2345 31.7525 28.2025 31.8244C28.1705 31.8963 28.1243 31.961 28.0667 32.0146C26.8605 33.2216 25.0886 33.517 22.823 32.9506Z" fill="#1B0640"/>
</g>
</g>
</g>
</g>
</g>
<defs>
<linearGradient id="paint0_linear_433_560" x1="69.5815" y1="-7.37774" x2="-37.7942" y2="30.67" gradientUnits="userSpaceOnUse">
<stop stop-color="#FFC700"/>
<stop offset="1" stop-color="#FFA215" stop-opacity="0.96"/>
</linearGradient>
<clipPath id="clip0_433_560">
<rect x="0.378906" width="50" height="50" rx="25" fill="white"/>
</clipPath>
</defs>
</svg>
