<svg width="86" height="83" viewBox="0 0 86 83" fill="none" xmlns="http://www.w3.org/2000/svg">
<path id="Vector" d="M46.7397 74.7889L67.4101 57.4614L60.8557 49.6425C60.0093 48.6328 60.3179 47.0075 61.4833 46.0306C62.6487 45.0537 64.3029 45.0336 65.1493 46.0433L71.7037 53.8622L75.2612 50.88C87.3752 40.7252 88.801 34.3281 81.0686 24.5431C80.7086 24.0514 80.0509 23.7651 79.37 23.7628C78.6675 23.7345 77.9942 23.9903 77.3809 24.5045C73.0873 28.1037 67.0429 28.0569 64.0044 24.4322C60.966 20.8075 61.9752 14.8478 66.2688 11.2486C66.8515 10.7601 67.2516 10.1162 67.3464 9.41949C67.463 8.7487 67.296 8.05112 66.8746 7.6108C58.5901 -1.71139 52.0423 -1.42436 39.9283 8.73047L36.3708 11.7126L42.9251 19.5315C43.7716 20.5413 43.463 22.1665 42.2976 23.1435C41.1322 24.1204 39.478 24.1404 38.6316 23.1307L32.0772 15.3118L11.4068 32.6393C-1.1672 43.1798 -2.28784 49.6296 6.6105 60.2447L18.7209 74.6915C27.6192 85.3066 34.1657 85.3293 46.7397 74.7889ZM23.7086 58.6519L24.6075 53.9309C24.6651 53.7504 24.5655 53.5694 24.4263 53.4656L20.9953 50.7431C20.3735 50.2505 20.1286 49.3977 20.4381 48.5211C20.717 47.6702 21.4403 46.9757 22.323 46.7206L27.1521 45.3175C27.2411 45.2867 27.3255 45.2387 27.3995 45.1766C27.4735 45.1146 27.5356 45.0399 27.5814 44.9576L29.8061 40.4477C29.9736 40.0869 30.2369 39.778 30.5436 39.521C30.8229 39.2907 31.1409 39.1146 31.4756 39.0046C31.8103 38.8947 32.1538 38.8536 32.4823 38.8842C32.8108 38.9148 33.1165 39.0163 33.3783 39.1818C33.6401 39.3473 33.8518 39.5728 33.9987 39.8427L36.0803 43.6964C36.1236 43.7696 36.1839 43.8305 36.2574 43.8752C36.3308 43.9199 36.4158 43.9474 36.5068 43.956L41.3122 43.8953C41.7389 43.8888 42.139 43.9995 42.4673 44.2151C42.7956 44.4306 43.0391 44.7423 43.1702 45.1151C43.3117 45.4878 43.3282 45.9118 43.2175 46.3339C43.1069 46.756 42.8741 47.1574 42.5484 47.4879L39.0352 51.2705C38.9097 51.4233 38.8404 51.6071 38.8408 51.7861L39.6103 56.2548C39.7287 57.0812 39.3668 57.9577 38.6308 58.5747C38.2832 58.8738 37.8702 59.083 37.4405 59.1776C37.0108 59.2722 36.5825 59.2482 36.2061 59.1084L31.9404 57.5705C31.7706 57.4925 31.5828 57.5176 31.4294 57.6462L27.0915 60.4449C26.2904 60.9842 25.3387 61.0326 24.6466 60.6429C23.8931 60.3047 23.5562 59.5291 23.7086 58.6519Z" fill="url(#paint0_linear_321_1447)"/>
<defs>
<linearGradient id="paint0_linear_321_1447" x1="12" y1="114.5" x2="78.5" y2="-44" gradientUnits="userSpaceOnUse">
<stop stop-color="#FFC700"/>
<stop offset="1" stop-color="#FFA215" stop-opacity="0.96"/>
</linearGradient>
</defs>
</svg>
