<svg width="45" height="44" viewBox="0 0 45 44" fill="none" xmlns="http://www.w3.org/2000/svg">
<path id="Exclude" fill-rule="evenodd" clip-rule="evenodd" d="M22.4991 0.119995C10.4151 0.119995 0.619141 9.916 0.619141 22C0.619141 34.084 10.4151 43.88 22.4991 43.88C34.5831 43.88 44.3791 34.084 44.3791 22C44.3791 9.916 34.5831 0.119995 22.4991 0.119995ZM8.73953 9.09641V21.8466H11.5082V14.3588L15.2422 20.4988H16.5718L20.3259 14.1939L20.3423 21.8466H23.1109L23.0744 9.09641H20.6519L15.9562 17.0135L11.1803 9.09641H8.73953ZM29.4146 9.09641L23.7316 21.8466H26.7552L27.8914 19.1145H33.8018L34.9336 21.8466H38.0301L32.3289 9.09641H29.4146ZM32.8737 16.8741L30.8524 11.9943L28.8231 16.8741H32.8737ZM12.5536 37.5554V27.2095H8.4735V24.8051H19.5844V27.2095H15.5043V37.5554H12.5536ZM26.1993 37.2821C27.0615 37.61 27.9965 37.7739 29.0044 37.7739C30.0001 37.7739 30.9169 37.61 31.7548 37.2821C32.6048 36.9543 33.3395 36.4989 33.9588 35.916C34.5902 35.321 35.082 34.6228 35.4341 33.8214C35.7863 33.0078 35.9624 32.1274 35.9624 31.1802C35.9624 30.2209 35.7863 29.3466 35.4341 28.5573C35.082 27.7559 34.5902 27.0577 33.9588 26.4627C33.3395 25.8676 32.6048 25.4062 31.7548 25.0783C30.9169 24.7505 29.994 24.5865 28.9862 24.5865C27.9904 24.5865 27.0676 24.7505 26.2175 25.0783C25.3675 25.4062 24.6268 25.8676 23.9954 26.4627C23.3639 27.0577 22.8721 27.7559 22.52 28.5573C22.18 29.3588 22.01 30.2331 22.01 31.1802C22.01 32.1274 22.18 33.0017 22.52 33.8032C22.8721 34.6046 23.3578 35.3028 23.9771 35.8978C24.6086 36.4928 25.3493 36.9543 26.1993 37.2821ZM30.5526 34.9689C30.079 35.1632 29.5569 35.2603 28.9862 35.2603C28.4154 35.2603 27.8872 35.1632 27.4015 34.9689C26.9158 34.7746 26.4908 34.4953 26.1265 34.131C25.7743 33.7667 25.495 33.3356 25.2886 32.8378C25.0943 32.3278 24.9972 31.7753 24.9972 31.1802C24.9972 30.5731 25.0943 30.0206 25.2886 29.5227C25.495 29.0248 25.7804 28.5938 26.1447 28.2295C26.509 27.8652 26.9279 27.5859 27.4015 27.3916C27.8872 27.1973 28.4154 27.1002 28.9862 27.1002C29.5569 27.1002 30.0851 27.1973 30.5708 27.3916C31.0566 27.5859 31.4755 27.8652 31.8276 28.2295C32.1919 28.5938 32.4712 29.0248 32.6655 29.5227C32.8719 30.0206 32.9752 30.5731 32.9752 31.1802C32.9752 31.7874 32.8719 32.3399 32.6655 32.8378C32.4712 33.3356 32.1919 33.7667 31.8276 34.131C31.4634 34.4953 31.0383 34.7746 30.5526 34.9689Z" fill="url(#paint0_linear_433_334)"/>
<defs>
<linearGradient id="paint0_linear_433_334" x1="61.1853" y1="-6.33701" x2="-32.7899" y2="26.9624" gradientUnits="userSpaceOnUse">
<stop stop-color="#FFC700"/>
<stop offset="1" stop-color="#FFA215" stop-opacity="0.96"/>
</linearGradient>
</defs>
</svg>
